<?xml version="1.0" encoding="UTF-8"?>
<!DOCTYPE svg PUBLIC "-//W3C//DTD SVG 1.1//EN" "http://www.w3.org/Graphics/SVG/1.1/DTD/svg11.dtd">
<!-- Creator: CorelDRAW X7 -->
<svg xmlns="http://www.w3.org/2000/svg" xml:space="preserve" width="8.37351in" height="3.33314in" version="1.1" style="shape-rendering:geometricPrecision; text-rendering:geometricPrecision; image-rendering:optimizeQuality; fill-rule:evenodd; clip-rule:evenodd"
viewBox="0 0 8384 3337"
 xmlns:xlink="http://www.w3.org/1999/xlink">
 <defs>
  <style type="text/css">
   <![CDATA[
    .str2 {stroke:#008A32;stroke-width:20.8567}
    .str1 {stroke:#1A1A1A;stroke-width:20.8567}
    .str0 {stroke:#2A3594;stroke-width:20.8567}
    .fil4 {fill:#008A32}
    .fil7 {fill:#1A1A1A}
    .fil5 {fill:#2A3594}
    .fil2 {fill:#FFC90B}
    .fil6 {fill:#008A32;fill-rule:nonzero}
    .fil3 {fill:#1A1A1A;fill-rule:nonzero}
    .fil0 {fill:#2A3594;fill-rule:nonzero}
    .fil1 {fill:#FFC90B;fill-rule:nonzero}
   ]]>
  </style>
 </defs>
 <g id="Layer_x0020_1">
  <metadata id="CorelCorpID_0Corel-Layer"/>
  <path class="fil0 str0" d="M5465 1373c0,-54 10,-103 28,-148 20,-46 47,-85 80,-119 34,-33 74,-59 120,-78 45,-19 95,-28 149,-28 50,0 98,9 141,26 44,16 81,40 112,71 32,30 57,65 74,106 19,41 28,86 28,134 0,36 -5,71 -14,105 -10,34 -25,65 -43,91 -18,27 -39,50 -66,69 -26,18 -54,30 -85,35 88,14 151,50 190,108 38,59 58,127 58,205 0,59 -10,112 -30,160 -19,49 -45,90 -79,123 -34,35 -75,62 -122,80 -48,19 -99,28 -155,28 -58,0 -113,-9 -162,-28 -50,-20 -92,-47 -127,-83 -36,-35 -64,-77 -84,-125 -20,-47 -30,-100 -30,-159l179 0c0,69 21,124 62,166 41,42 94,64 160,64 65,0 116,-21 153,-62 37,-40 56,-94 56,-164 0,-68 -19,-123 -56,-164 -37,-40 -88,-59 -153,-59l-130 0 0 -164 124 0c54,0 98,-20 133,-60 36,-39 54,-87 54,-145 0,-59 -18,-106 -54,-142 -38,-36 -85,-54 -144,-54 -59,0 -106,19 -139,56 -35,37 -53,88 -53,153l-175 2zm1612 -354l-285 447c13,-2 27,-2 41,-2 66,0 125,10 180,32 54,21 100,50 138,89 39,37 69,83 90,138 21,53 31,113 31,179 0,66 -10,126 -31,180 -21,54 -51,100 -90,138 -38,39 -84,69 -138,90 -54,21 -114,31 -180,31 0,0 0,0 0,0 -66,0 -126,-10 -179,-31 -55,-21 -101,-51 -140,-90 -38,-38 -68,-84 -87,-138 -22,-54 -32,-114 -32,-180 0,-107 27,-198 82,-274l389 -609 211 0zm-246 605c-40,0 -76,8 -108,22 -32,15 -60,35 -82,60 -23,25 -39,54 -50,88 -13,32 -19,67 -19,104 0,38 6,75 19,110 12,33 30,63 53,89 23,26 51,47 84,62 33,15 69,22 110,22 38,0 72,-7 105,-20 31,-14 58,-33 81,-58 23,-25 40,-54 53,-88 12,-33 18,-70 18,-110 0,-42 -6,-80 -20,-113 -12,-35 -30,-65 -54,-90 -24,-24 -52,-44 -84,-57 -32,-14 -68,-21 -106,-21zm754 531c-39,-60 -70,-130 -93,-212 -22,-82 -33,-173 -33,-272 0,-100 11,-190 33,-272 23,-82 54,-153 93,-213 41,-58 90,-104 146,-137 56,-33 117,-49 185,-49 68,0 130,16 186,49 55,33 103,79 143,137 41,60 73,131 95,213 22,82 34,172 34,272 0,99 -12,190 -34,272 -22,82 -54,152 -95,212 -40,58 -88,104 -143,137 -56,33 -118,49 -186,49 -68,0 -129,-16 -185,-49 -56,-33 -105,-79 -146,-137zm217 -17c33,24 71,36 113,36 42,0 81,-12 116,-36 33,-23 62,-57 86,-101 25,-44 43,-97 57,-160 14,-62 21,-131 21,-207 0,-77 -7,-145 -21,-206 -14,-62 -32,-115 -57,-159 -24,-45 -53,-78 -86,-102 -35,-24 -74,-35 -116,-35 -42,0 -80,11 -113,35 -35,24 -65,57 -89,102 -24,44 -43,97 -57,159 -12,61 -18,129 -18,206 0,76 6,145 18,207 14,63 33,116 57,160 24,44 54,78 89,101z"/>
  <path class="fil1" d="M5538 688c155,-213 359,-387 594,-507 227,-116 484,-181 757,-181 183,0 359,30 524,84 171,57 330,140 472,246 25,19 48,37 69,54 22,18 44,37 66,57l-128 139c-18,-17 -38,-34 -58,-51 -22,-18 -42,-34 -61,-48 -126,-93 -266,-167 -419,-218 -146,-48 -302,-74 -465,-74 -242,0 -470,58 -671,160 -210,107 -391,261 -528,449l-152 -110zm2676 2000c-30,38 -59,74 -90,107 -295,325 -691,504 -1098,537 -405,33 -821,-80 -1158,-339 -36,-28 -71,-57 -104,-87l127 -139c31,27 61,53 92,77 298,229 668,329 1029,300 360,-30 711,-188 973,-476 28,-31 55,-62 80,-95l149 115z"/>
  <polygon class="fil2" points="8050,179 8135,488 8220,796 7900,716 7581,636 7815,408 "/>
  <path class="fil3 str1" d="M1916 1467c-29,0 -53,-9 -73,-29 -19,-20 -29,-44 -29,-73 0,-29 10,-53 29,-72 20,-20 44,-30 73,-30 28,0 51,10 71,30 19,19 29,43 29,72 0,29 -10,53 -29,73 -20,20 -43,29 -71,29zm78 102l0 770 -159 0 0 -770 159 0zm489 782c-61,0 -115,-11 -163,-33 -48,-21 -86,-51 -114,-89 -28,-38 -43,-80 -45,-126l165 0c3,32 19,59 47,81 28,22 64,33 107,33 45,0 79,-8 104,-26 25,-17 37,-39 37,-66 0,-29 -14,-50 -41,-64 -28,-14 -71,-30 -131,-46 -58,-16 -105,-32 -141,-46 -36,-15 -68,-38 -94,-69 -27,-31 -40,-71 -40,-121 0,-41 12,-79 36,-113 25,-34 59,-60 104,-80 46,-20 97,-29 156,-29 88,0 158,22 212,66 53,44 82,104 85,181l-159 0c-2,-35 -16,-62 -42,-83 -25,-20 -59,-30 -102,-30 -41,0 -74,8 -96,23 -22,16 -33,37 -33,63 0,21 7,38 22,52 15,14 33,25 54,33 22,8 53,18 95,30 56,15 102,30 138,45 36,16 67,38 93,68 26,30 39,69 40,119 0,43 -12,82 -36,117 -24,34 -58,61 -103,81 -44,19 -96,29 -155,29zm1171 -416c0,29 -2,55 -5,78l-588 0c4,62 27,111 68,148 41,38 91,56 151,56 86,0 146,-36 181,-107l172 0c-23,70 -65,128 -126,173 -61,46 -137,68 -227,68 -74,0 -139,-16 -198,-49 -58,-33 -103,-80 -136,-140 -34,-60 -50,-130 -50,-209 0,-79 16,-148 48,-209 32,-60 77,-106 136,-138 58,-33 125,-49 200,-49 73,0 137,15 194,47 57,32 101,76 133,133 31,58 47,124 47,198zm-166 -50c-1,-59 -22,-106 -63,-141 -41,-36 -92,-53 -152,-53 -55,0 -102,17 -141,52 -39,35 -62,82 -70,142l426 0z"/>
  <polygon class="fil1" points="688,2334 880,2334 880,1328 963,1328 875,1177 788,1026 701,1177 614,1328 688,1328 "/>
  <polygon class="fil4" points="480,1351 567,1502 654,1653 576,1653 576,2334 383,2334 383,1653 305,1653 392,1502 "/>
  <polygon class="fil5" points="174,1663 262,1814 349,1965 270,1965 270,2334 78,2334 78,1965 0,1965 87,1814 "/>
  <path class="fil6 str2" d="M4052 1019l0 1304 -187 0 0 -1304 187 0zm1222 0l0 167 -425 0 0 1137 -186 0 0 -1137 -425 0 0 -167 1036 0z"/>
  <path class="fil7 str1" d="M1310 1252c47,36 71,86 71,151 0,64 -24,116 -71,155 -46,37 -117,55 -212,55l-32 0 0 163 373 558 218 0 -386 -579c101,-25 173,-70 219,-134 45,-65 68,-137 68,-218 0,-51 -9,-99 -28,-144 -18,-46 -45,-85 -82,-119 -37,-33 -85,-60 -143,-80 -57,-20 -127,-30 -207,-30l-252 0 97 168 155 0c95,0 166,18 212,54z"/>
  <polygon class="fil2" points="5760,3188 5666,2882 5571,2577 5893,2647 6215,2717 5987,2953 "/>
 </g>
</svg>
